<svg xmlns="http://www.w3.org/2000/svg" viewBox="0 0 32 32">
  <path fill="white" d="M15.966 3.807C8.253 3.807 2 10.061 2 17.773c0 4.244 1.9 8.038 4.888 10.6l4.106-4.213-1.415-1.414L7.523 24.8a10.92 10.92 0 0 1-2.501-6.024l2.912-.001v-2.001l-2.918-.002a10.95 10.95 0 0 1 2.496-6.034l2.066 2.066 1.415-1.416-2.064-2.067a10.936 10.936 0 0 1 6.036-2.497v2.918h2.002V6.824a10.936 10.936 0 0 1 6.036 2.497l-2.065 2.066 1.415 1.416 2.066-2.066a10.95 10.95 0 0 1 2.496 6.034l-2.918.002v2.001l2.912.001a10.92 10.92 0 0 1-2.501 6.024l-2.056-2.054-1.415 1.414 4.106 4.213c2.988-2.562 4.888-6.355 4.888-10.6.001-7.711-6.252-13.965-13.965-13.965z"/>
  <path fill="white" d="M16.7 16.458l-4.99-2.941 2.941 4.99a1.5 1.5 0 1 0 2.049-2.049z"/>
</svg>
