<svg xmlns="http://www.w3.org/2000/svg" viewBox="0 0 430.267 430.267">
  <path fill="white" d="M251.934 94.267c-10.4-12-20-23.2-27.2-32-.4-.8-1.2-1.2-1.6-1.6-4.4-3.6-10.8-2.8-14.4 1.6-7.2 8.8-16.8 20-27.2 32-2.4 2.8-4.8 5.2-6.8 8-10.8-14.8-23.2-29.2-34-41.6-6-6.8-11.6-13.2-15.2-18-.4-.8-1.2-1.2-1.6-1.6-4.4-3.6-10.8-2.8-14.4 1.6-4 4.8-9.6 11.2-15.6 18.4-27.2 30.8-64.4 74-64.4 111.2 0 24.4 10 46 25.6 62 6.4 6.4 13.6 11.6 21.6 16-1.2 4.4-2.4 8.4-3.2 12.8-1.6 7.2-2.4 14.4-2.4 21.6 0 40.4 16.4 76.8 42.8 102.8 26.4 26.4 62.8 42.8 102.8 42.8s76.8-16.4 102.8-42.8c26.4-26.4 42.8-62.8 42.8-102.8 0-62.4-64-136.4-110.4-190.4zm-182.8 126.4c-12-12-19.6-29.2-19.6-47.6.4-30.4 34.8-70.4 59.6-99.2 2.8-3.2 5.6-6.4 8-9.2 2.4 3.2 5.2 6 8 9.2 12.8 14.8 28 32.4 40 50.4 5.6 8.8 10.8 17.2 14 25.6v.4c.8 2 1.6 3.6 2 5.6 0 .4 0 .8.4 1.2l1.2 4.8c0 .8.4 1.6.4 2.4.4 1.2.4 2.4.8 3.2.4 2 .4 3.6.4 5.6 0 11.6-2.8 22.4-8 32-3.2 5.6-7.2 10.8-11.6 15.6-4.4 4.4-10 8.4-15.6 11.6-9.6 5.2-20.4 8-32 8-2.4 0-4.4 0-6.8-.4h-.8c-2-.4-4-.4-6-.8-.4 0-.8 0-1.2-.4-1.6-.4-3.6-.8-5.2-1.2-.4 0-.8-.4-1.2-.4-10-3.2-19.2-8.8-26.8-16.4zm235.2 152.4c-22.8 22.8-54 36.8-88.4 36.8-34.8 0-66-14-88.4-36.8s-36.4-54-36.4-88.4c0-5.6.8-11.6 2-17.6l2.4-9.6c.8 0 1.6.4 2 .4.8.4 2 .4 2.8.8h.4c.8 0 2 .4 2.8.4 1.6.4 3.2.4 4.8.8 2.8.4 5.6.4 8.4.4 24.4 0 46-10 62-25.6 2-2 4-4 5.6-6.4 12.4-15.2 20-34.4 20-55.6 0-2.4 0-4.8-.4-7.2 0-1.2-.4-2-.4-3.2-.4-1.2-.4-2.8-.8-4-.4-1.6-.8-2.8-1.2-4.4-.4-1.2-.4-2-.8-3.2-.4-1.6-1.2-3.2-2-5.2-.4-.8-.4-1.6-.8-2.4.4 0 .4-.4 0-.8-3.2-7.6-7.2-15.2-12-22.8 3.6-4.4 7.2-8.4 10.4-12 7.2-8 13.6-16 19.6-23.2 6 7.2 12.8 14.8 19.6 23.2 44.4 51.2 105.6 122 105.6 177.2 0 34.8-14 66-36.8 88.4zM400.734 85.867l-.043-.071c-.875-23.518-30.279-58.851-47.598-78.69l-1.959-3.239c-.4-.4-.8-1.2-1.6-1.6-4.4-3.6-10.8-2.8-14.4 1.6-2 2.8-5.6 6.8-9.2 11.2-16.8 19.6-40.4 46.8-40.4 70.8 0 16 6.4 30.4 16.8 40.8 10.4 10.4 24.8 16.8 40.8 16.8s30.4-6.4 40.8-16.8c10.191-10.191 16.524-24.226 16.776-39.84l.024.04c0-.126-.014-.258-.015-.384.002-.206.015-.409.015-.616zm-31.2 26.4c-6.8 6.8-16 10.8-26.4 10.8-10.4 0-19.6-4-26.4-10.8-6.8-6.8-10.8-16-10.8-26.4 0-16.8 20.4-40.4 35.2-57.6l2-2.4 2 2.4c14.8 17.2 35.2 40.8 35.2 57.6 0 10.4-4 19.6-10.8 26.4z"/>
</svg>
