<svg xmlns="http://www.w3.org/2000/svg" viewBox="0 0 512 512" preserveAspectRatio="xMidYMid meet">
  <path fill="white" d="M472.916 121.648l-.003-.001-.008-.002-273.508-60.256a15.002 15.002 0 0 0-12.724 2.862l-.013.01-.031.025L61 164.791V87.42C78.459 81.228 91 64.555 91 45 91 20.187 70.813 0 46 0 21.134 0 0 20.096 0 45c0 19.993 13.543 36.486 31 42.493v108.489l-.001.018v.005l.001.018V482H15c-8.284 0-15 6.716-15 15s6.716 15 15 15h61c8.284 0 15-6.716 15-15s-6.716-15-15-15H61V227.209l125.63 100.504c3.123 2.5 7.218 3.62 11.017 3.196l272.352-30.075h.006C502.213 297.264 512 244.389 512 211c0-40.174-12.085-83.382-39.084-89.352zM46 30c8.271 0 15 6.729 15 15s-6.729 15-15 15c-8.523 0-16-7.009-16-15s7.477-15 16-15zm328.798 251.165C365.75 257.525 361 230.905 361 203.5c0-25.603 4.184-50.622 12.141-73.114l62.517 13.773a85.18 85.18 0 0 0-3.798 8.237C425.502 168.292 422 189.104 422 211s3.502 42.708 9.859 58.604a91.323 91.323 0 0 0 2.183 5.019l-59.244 6.542zm-86.044 9.502C277.126 264.79 271 234.888 271 203.5c0-32.719 6.946-64.685 19.674-91.282l52.963 11.668C335.34 148.652 331 175.834 331 203.5c0 28.267 4.519 55.905 13.139 81.051l-55.385 6.116zM482 211c0 35.208-10.091 55.76-15 59.625-4.909-3.865-15-24.417-15-59.625s10.091-55.76 15-59.625c4.909 3.864 15 24.416 15 59.625zM204.282 93.185l56.383 12.422C247.761 134.918 241 168.362 241 203.5c0 32.119 5.72 63.028 16.642 90.602l-52.846 5.836C196.918 282.784 181 242.383 181 196c0-45.399 15.253-85.075 23.282-102.815zm-42.663 176.101L70.012 196l91.607-73.286C155.768 143.377 151 168.614 151 196s4.768 52.623 10.619 73.286z"/>
</svg>
